<svg width="806" height="805" viewBox="0 0 806 805" fill="none" xmlns="http://www.w3.org/2000/svg">
<rect width="805" height="805" rx="120" fill="white"/>
<path d="M279.227 492.545H255.091V702H279.227V492.545ZM323.435 760.909H347.571V677.864H349.616C354.935 686.455 365.162 705.273 395.435 705.273C434.707 705.273 462.116 673.773 462.116 623.864C462.116 574.364 434.707 542.864 395.026 542.864C364.344 542.864 354.935 561.682 349.616 569.864H346.753V544.909H323.435V760.909ZM347.162 623.455C347.162 588.273 362.707 564.545 392.162 564.545C422.844 564.545 437.98 590.318 437.98 623.455C437.98 657 422.435 683.591 392.162 683.591C363.116 683.591 347.162 659.045 347.162 623.455ZM498.935 702H523.071V643.193L539.946 627.545L598.753 702H629.435L558.151 612L624.526 544.909H594.662L525.935 614.864H523.071V492.545H498.935V702ZM655.591 702H679.727V602.591C679.727 581.318 696.5 565.773 719.409 565.773C725.852 565.773 732.5 567 734.136 567.409V542.864C731.375 542.659 725.034 542.455 721.455 542.455C702.636 542.455 686.273 553.091 680.545 568.636H678.909V544.909H655.591V702Z" fill="black"/>
</svg>
